<?xml version="1.0" encoding="UTF-8"?>
<!--Generator: Apple Native CoreSVG 232.5-->
<!DOCTYPE svg
PUBLIC "-//W3C//DTD SVG 1.1//EN"
       "http://www.w3.org/Graphics/SVG/1.1/DTD/svg11.dtd">
<svg version="1.1" xmlns="http://www.w3.org/2000/svg" xmlns:xlink="http://www.w3.org/1999/xlink" width="20.2832" height="19.9316">
 <g>
  <rect height="19.9316" opacity="0" width="20.2832" x="0" y="0"/>
  <path d="M19.9219 9.96094C19.9219 15.4004 15.4102 19.9219 9.96094 19.9219C4.52148 19.9219 0 15.4004 0 9.96094C0 4.51172 4.51172 0 9.95117 0C15.4004 0 19.9219 4.51172 19.9219 9.96094ZM9.11133 6.05469L9.11133 9.11133L6.05469 9.11133C5.54688 9.11133 5.19531 9.46289 5.19531 9.9707C5.19531 10.4688 5.54688 10.8008 6.05469 10.8008L9.11133 10.8008L9.11133 13.8672C9.11133 14.3652 9.45312 14.7266 9.95117 14.7266C10.459 14.7266 10.8105 14.375 10.8105 13.8672L10.8105 10.8008L13.877 10.8008C14.375 10.8008 14.7363 10.4688 14.7363 9.9707C14.7363 9.46289 14.375 9.11133 13.877 9.11133L10.8105 9.11133L10.8105 6.05469C10.8105 5.54688 10.459 5.18555 9.95117 5.18555C9.45312 5.18555 9.11133 5.54688 9.11133 6.05469Z" fill="#ffffff"/>
 </g>
</svg>
